Call Me Fitz | s02 e05 | Pubic Disturbance

This episode first aired on HBO Canada on 16 October 2011.

Confronted with his mortality via a grey pube, Fitz tries to talk legendary crooner Dexter Laine into backing his plans for the Summerwind; cashing in on his idol’s name is a sure bet. And failing that – sabatoge the old guy. Dexter really hates Joey Bishop.

Cast
Jason Priestley	 ...	Richard Fitzpatrick
Ernie Grunwald	 ...	Larry
Tracy Dawson     ...    Meghan Fitzpatrick
Donavon Stinson  ...    Josh McTaggart
Amy Sloan        ...	Dot Foxley
Peter MacNeill   ...    Ken Fitzpatrick
Pat Bullard      ...    Dexter Laine



General
Complete name                    : Call.Me.Fitz.s02e05.Pubic.Disturbance.WS.XviD-jAh.avi
Format                           : AVI
Format/Info                      : Audio Video Interleave
File size                        : 233 MiB
Duration                         : 26mn 51s
Overall bit rate mode            : Variable
Overall bit rate                 : 1 213 Kbps
Writing application              : VirtualDubMod 1.5.4.1 (build 2178/release)
Writing library                  : VirtualDubMod build 2178/release

Video
ID                               : 0
Format                           : MPEG-4 Visual
Format profile                   : Simple@L3
Format settings, BVOP            : No
Format settings, QPel            : No
Format settings, GMC             : No warppoints
Format settings, Matrix          : Default (H.263)
Codec ID                         : XVID
Codec ID/Hint                    : XviD
Duration                         : 26mn 51s
Bit rate                         : 1 089 Kbps
Width                            : 624 pixels
Height                           : 352 pixels
Display aspect ratio             : 16:9
Frame rate                       : 23.976 fps
Color space                      : YUV
Chroma subsampling               : 4:2:0
Bit depth                        : 8 bits
Scan type                        : Progressive
Compression mode                 : Lossy
Bits/(Pixel*Frame)               : 0.207
Stream size                      : 209 MiB (90%)
Writing library                  : XviD 1.2.1 (UTC 2008-12-04)

Audio
ID                               : 1
Format                           : MPEG Audio
Format version                   : Version 1
Format profile                   : Layer 3
Mode                             : Joint stereo
Mode extension                   : MS Stereo
Codec ID                         : 55
Codec ID/Hint                    : MP3
Duration                         : 26mn 51s
Bit rate mode                    : Variable
Bit rate                         : 111 Kbps
Nominal bit rate                 : 128 Kbps
Channel(s)                       : 2 channels
Sampling rate                    : 48.0 KHz
Compression mode                 : Lossy
Stream size                      : 21.4 MiB (9%)
Alignment                        : Aligned on interleaves
Interleave, duration             : 24 ms (0.58 video frame)
Interleave, preload duration     : 538 ms
Writing library                  : LAME3.98r
Encoding settings                : -m j -V 4 -q 2 -lowpass 17 --abr 128
